<?xml version="1.0" encoding="UTF-8" standalone="no"?>
<svg
   width="20px"
   height="20px"
   enable-background="new 0 0 100 100"
   version="1.1"
   viewBox="0 0 100 100"
   xml:space="preserve"
   id="svg13"
   sodipodi:docname="profile.svg"
   inkscape:export-filename="profile.png"
   inkscape:export-xdpi="96"
   inkscape:export-ydpi="96"
   inkscape:version="1.2.2 (b0a84865, 2022-12-01)"
   xmlns:inkscape="http://www.inkscape.org/namespaces/inkscape"
   xmlns:sodipodi="http://sodipodi.sourceforge.net/DTD/sodipodi-0.dtd"
   xmlns="http://www.w3.org/2000/svg"
   xmlns:svg="http://www.w3.org/2000/svg"><defs
   id="defs17" /><sodipodi:namedview
   id="namedview15"
   pagecolor="#ffffff"
   bordercolor="#000000"
   borderopacity="0.25"
   inkscape:showpageshadow="2"
   inkscape:pageopacity="0.0"
   inkscape:pagecheckerboard="0"
   inkscape:deskcolor="#d1d1d1"
   showgrid="false"
   inkscape:zoom="11.8"
   inkscape:cx="10"
   inkscape:cy="10"
   inkscape:window-width="1309"
   inkscape:window-height="456"
   inkscape:window-x="0"
   inkscape:window-y="25"
   inkscape:window-maximized="0"
   inkscape:current-layer="svg13" />
<path
   d="M65.904,52.834c-4.734,3.725-10.695,5.955-17.172,5.955c-6.316,0-12.146-2.119-16.821-5.68C16.654,55.575,5,68.803,5,84.757  c0,17.711,14.356,6.197,32.065,6.197h25.868C80.643,90.954,95,102.468,95,84.757C95,68.051,82.22,54.333,65.904,52.834z"
   id="path9" />
<path
   d="m48.732 55.057c13.285 0 24.092-10.809 24.092-24.095 0-13.285-10.807-24.094-24.092-24.094s-24.093 10.809-24.093 24.094c1e-3 13.286 10.809 24.095 24.093 24.095z"
   id="path11" />
</svg>
