<?xml version="1.0" encoding="UTF-8" standalone="no"?>
<svg
   width="20px"
   height="20px"
   version="1.1"
   viewBox="0 0 334.39912 333.40337"
   id="svg29"
   sodipodi:docname="settings.svg"
   inkscape:export-filename="settings.png"
   inkscape:export-xdpi="96"
   inkscape:export-ydpi="96"
   inkscape:version="1.2.2 (b0a84865, 2022-12-01)"
   xmlns:inkscape="http://www.inkscape.org/namespaces/inkscape"
   xmlns:sodipodi="http://sodipodi.sourceforge.net/DTD/sodipodi-0.dtd"
   xmlns="http://www.w3.org/2000/svg"
   xmlns:svg="http://www.w3.org/2000/svg">
  <defs
     id="defs33" />
  <sodipodi:namedview
     id="namedview31"
     pagecolor="#ffffff"
     bordercolor="#000000"
     borderopacity="0.25"
     inkscape:showpageshadow="2"
     inkscape:pageopacity="0.0"
     inkscape:pagecheckerboard="0"
     inkscape:deskcolor="#d1d1d1"
     showgrid="false"
     inkscape:zoom="11.8"
     inkscape:cx="10"
     inkscape:cy="10"
     inkscape:window-width="1309"
     inkscape:window-height="456"
     inkscape:window-x="0"
     inkscape:window-y="25"
     inkscape:window-maximized="0"
     inkscape:current-layer="svg29" />
  <g
     transform="translate(-227.48 -315.58)"
     id="g27">
    <path
       d="m395 353.79c-35.307-7e-5 -67.271 14.311-90.409 37.448-23.138 23.138-37.449 55.102-37.448 90.409 7e-5 35.307 14.311 67.271 37.449 90.409s55.102 37.449 90.409 37.449c35.307 7e-5 67.271-14.311 90.409-37.448 23.138-23.138 37.449-55.102 37.449-90.409 7e-5 -35.307-14.311-67.271-37.448-90.409-23.14-23.14-55.1-37.45-90.41-37.45zm0 64.285c35.11-4.6e-4 63.573 28.462 63.572 63.572-6.2e-4 35.109-28.463 63.571-63.572 63.57-35.109 4.6e-4 -63.572-28.461-63.572-63.57-4.6e-4 -35.11 28.462-63.573 63.572-63.572z"
       id="path9" />
    <rect
       x="376.12"
       y="322.77"
       width="37.043"
       height="32.947"
       stroke="#000"
       stroke-linejoin="round"
       stroke-width="14.385"
       id="rect11" />
    <rect
       transform="rotate(45)"
       x="601.93"
       y="-98.579"
       width="37.043"
       height="32.947"
       stroke="#000"
       stroke-linejoin="round"
       stroke-width="14.385"
       id="rect13" />
    <rect
       transform="rotate(90)"
       x="463.58"
       y="-554.69"
       width="37.043"
       height="32.947"
       stroke="#000"
       stroke-linejoin="round"
       stroke-width="14.385"
       id="rect15" />
    <rect
       transform="rotate(90)"
       x="463.62"
       y="-267.62"
       width="37.043"
       height="32.947"
       stroke="#000"
       stroke-linejoin="round"
       stroke-width="14.385"
       id="rect17" />
    <rect
       x="376.84"
       y="608.84"
       width="37.043"
       height="32.947"
       stroke="#000"
       stroke-linejoin="round"
       stroke-width="14.385"
       id="rect19" />
    <rect
       transform="rotate(45)"
       x="601.93"
       y="188.3"
       width="37.043"
       height="32.947"
       stroke="#000"
       stroke-linejoin="round"
       stroke-width="14.385"
       id="rect21" />
    <rect
       transform="rotate(135)"
       x="42.562"
       y="-493.74"
       width="37.043"
       height="32.947"
       stroke="#000"
       stroke-linejoin="round"
       stroke-width="14.385"
       id="rect23" />
    <rect
       transform="rotate(135)"
       x="41.49"
       y="-779.45"
       width="37.043"
       height="32.947"
       stroke="#000"
       stroke-linejoin="round"
       stroke-width="14.385"
       id="rect25" />
  </g>
</svg>
